<svg viewBox="0 0 16 16" xmlns="http://www.w3.org/2000/svg"><circle cx="13.5" cy="2.5" r="2.5" fill="#5858E9"/><path d="m6.5 16c3.59 0 6.5-2.91 6.5-6.5 0-3.59-2.91-6.5-6.5-6.5-3.59 0-6.5 2.91-6.5 6.5 0 3.59 2.91 6.5 6.5 6.5zm2-6c1.38 0 2.5-1.12 2.5-2.5s-1.12-2.5-2.5-2.5-2.5 1.12-2.5 2.5 1.12 2.5 2.5 2.5z" clip-rule="evenodd" fill="#5858E9" fill-rule="evenodd"/><path d="m9.75 8.31c0-0.102-0.0514-0.198-0.137-0.255-0.0859-0.0572-0.195-0.0688-0.291-0.0309l-3.12 1.23c-0.119 0.0467-0.196 0.16-0.196 0.286v6.15c0 0.102 0.0514 0.198 0.137 0.255 0.0859 0.0572 0.195 0.0688 0.291 0.0309l3.12-1.23c0.119-0.0467 0.196-0.16 0.196-0.286v-6.15z" fill="#AAD945"/><path d="m16 8.31c0-0.102-0.0514-0.198-0.137-0.255s-0.195-0.0688-0.291-0.0309l-3.12 1.23c-0.119 0.0467-0.196 0.16-0.196 0.286v6.15c0 0.102 0.0514 0.198 0.137 0.255s0.195 0.0688 0.291 0.0309l3.12-1.23c0.119-0.0467 0.196-0.16 0.196-0.286v-6.15z" fill="#AAD945"/><path d="m12.4 16-3.01-1.19v-6.79c0.0392 0 0.0786 0.00726 0.116 0.022l3.01 1.19v6.79c-0.0392 0-0.0786-0.0073-0.116-0.022z" fill="#6EAC3E"/></svg>
