<svg viewBox="0 0 16 16" xmlns="http://www.w3.org/2000/svg"><path d="M8.00008 1.00001C3.58884 0.993684 0.0064048 4.52142 4.74348e-06 8.88246C-0.00159527 10.3356 0.401608 11.7603 1.16482 13H1.62402C3.17924 11.4615 6.72967 7.95428 7.69448 7.00079C8.24968 7.54948 9.01129 6.80947 9.23369 6.56912C9.11369 6.45211 8.98569 6.32403 8.85289 6.1912C8.32488 5.67098 7.87048 6.46792 7.87048 6.46792L6.71527 5.32469C6.71527 5.32469 8.51849 4.51193 9.50089 5.48123C9.8529 5.8291 10.0833 6.0568 10.2369 6.2086L11.5809 4.88036C11.3889 4.36962 11.6529 3.80196 12.1713 3.61221C12.6881 3.42246 13.2625 3.68336 13.4545 4.19568C13.6465 4.70642 13.3825 5.27409 12.8641 5.46383C12.6449 5.54448 12.4033 5.54606 12.1825 5.467L10.8353 6.79681C10.9873 6.94861 11.2177 7.17631 11.5649 7.51944C12.5473 8.48874 11.7217 10.2724 11.7217 10.2724L10.5649 9.12914C10.5649 9.12914 11.3697 8.68165 10.8433 8.15984C10.7105 8.0286 10.5825 7.90052 10.4625 7.78192C10.2193 8.00172 9.4705 8.75438 10.0257 9.30307C9.4209 9.90236 7.79688 11.5073 6.28486 13H14.8337C17.1282 9.27619 15.933 4.41864 12.1633 2.15115C10.9089 1.3969 9.4689 0.998427 8.00008 1.00001Z" fill="#FFAB00"/></svg>
