<svg viewBox="0 0 16 16" xmlns="http://www.w3.org/2000/svg"><path d="m13 0h-12c-0.552 0-1 0.448-1 1v0.0858c0 0.265 0.105 0.52 0.293 0.707l13.9 13.9c0.188 0.188 0.442 0.293 0.707 0.293h0.0858c0.552 0 1-0.448 1-1v-12c0-1.66-1.34-3-3-3z" fill="#5C2620"/><path d="m3 3-1.85-1.85c0.0369-0.0369 0.0795-0.068 0.127-0.092 0.107-0.0545 0.247-0.0545 0.527-0.0545h2.4c0.28 0 0.42 0 0.527 0.0545 0.0941 0.0479 0.171 0.124 0.219 0.218 0.0545 0.107 0.0545 0.247 0.0545 0.527v0.4c0 0.28 0 0.42-0.0545 0.527-0.0479 0.0941-0.124 0.171-0.219 0.218-0.107 0.0545-0.247 0.0545-0.527 0.0545h-1.2z" fill="#E6976A"/><path d="m6 6-2-2h3.2c0.28 0 0.42 0 0.527 0.0545 0.0941 0.0479 0.171 0.124 0.219 0.218 0.0545 0.107 0.0545 0.247 0.0545 0.527v0.4c0 0.28 0 0.42-0.0545 0.527-0.0479 0.0941-0.124 0.171-0.219 0.218-0.107 0.0545-0.247 0.0545-0.527 0.0545h-1.2z" fill="#E6976A"/><path d="m9 9-2-2h3.2c0.28 0 0.42 0 0.527 0.0545 0.0941 0.0479 0.171 0.124 0.218 0.218 0.0545 0.107 0.0545 0.247 0.0545 0.527v0.4c0 0.28 0 0.42-0.0545 0.527-0.0479 0.0941-0.124 0.171-0.218 0.218-0.107 0.0545-0.247 0.0545-0.527 0.0545h-1.2z" fill="#E6976A"/><path d="m12 12-2-2h4.2c0.28 0 0.42 0 0.527 0.0545 0.0941 0.0479 0.171 0.124 0.218 0.218 0.0545 0.107 0.0545 0.247 0.0545 0.527v0.4c0 0.28 0 0.42-0.0545 0.527-0.0479 0.0941-0.124 0.171-0.218 0.218-0.107 0.0545-0.247 0.0545-0.527 0.0545h-2.2z" fill="#E6976A"/><path d="m14.9 14.9-1.85-1.85h1.2c0.28 0 0.42 0 0.527 0.0545 0.0941 0.0479 0.171 0.124 0.218 0.218 0.0545 0.107 0.0545 0.247 0.0545 0.527v0.4c0 0.28 0 0.42-0.0545 0.527-0.0239 0.047-0.055 0.0897-0.0919 0.127z" fill="#E6976A"/><path d="m6 1.8c0-0.28 0-0.42 0.0545-0.527 0.0479-0.0941 0.124-0.171 0.219-0.218 0.107-0.0545 0.247-0.0545 0.527-0.0545h2.4c0.28 0 0.42 0 0.527 0.0545 0.0941 0.0479 0.171 0.124 0.219 0.218 0.0545 0.107 0.0545 0.247 0.0545 0.527v0.4c0 0.28 0 0.42-0.0545 0.527-0.0479 0.0941-0.124 0.171-0.219 0.218-0.107 0.0545-0.247 0.0545-0.527 0.0545h-2.4c-0.28 0-0.42 0-0.527-0.0545-0.0941-0.0479-0.171-0.124-0.219-0.218-0.0545-0.107-0.0545-0.247-0.0545-0.527v-0.4z" fill="#E6976A"/><path d="m11 1.8c0-0.28 0-0.42 0.0545-0.527 0.048-0.0941 0.124-0.171 0.218-0.218 0.107-0.0545 0.247-0.0545 0.527-0.0545h2.4c0.28 0 0.42 0 0.527 0.0545 0.0941 0.0479 0.171 0.124 0.218 0.218 0.0545 0.107 0.0545 0.247 0.0545 0.527v0.4c0 0.28 0 0.42-0.0545 0.527-0.0479 0.0941-0.124 0.171-0.218 0.218-0.107 0.0545-0.247 0.0545-0.527 0.0545h-2.4c-0.28 0-0.42 0-0.527-0.0545-0.094-0.0479-0.17-0.124-0.218-0.218-0.0545-0.107-0.0545-0.247-0.0545-0.527v-0.4z" fill="#E6976A"/><path d="m12 7.8c0-0.28 0-0.42 0.0545-0.527 0.048-0.0941 0.124-0.171 0.218-0.218 0.107-0.0545 0.247-0.0545 0.527-0.0545h1.4c0.28 0 0.42 0 0.527 0.0545 0.0941 0.0479 0.171 0.124 0.218 0.218 0.0545 0.107 0.0545 0.247 0.0545 0.527v0.4c0 0.28 0 0.42-0.0545 0.527-0.0479 0.0941-0.124 0.171-0.218 0.218-0.107 0.0545-0.247 0.0545-0.527 0.0545h-1.4c-0.28 0-0.42 0-0.527-0.0545-0.094-0.0479-0.17-0.124-0.218-0.218-0.0545-0.107-0.0545-0.247-0.0545-0.527v-0.4z" fill="#E6976A"/><path d="m9 4.8c0-0.28 0-0.42 0.0545-0.527 0.0479-0.0941 0.124-0.171 0.219-0.218 0.107-0.0545 0.247-0.0545 0.527-0.0545h4.4c0.28 0 0.42 0 0.527 0.0545 0.0941 0.0479 0.171 0.124 0.218 0.218 0.0545 0.107 0.0545 0.247 0.0545 0.527v0.4c0 0.28 0 0.42-0.0545 0.527-0.0479 0.0941-0.124 0.171-0.218 0.218-0.107 0.0545-0.247 0.0545-0.527 0.0545h-4.4c-0.28 0-0.42 0-0.527-0.0545-0.0941-0.0479-0.171-0.124-0.219-0.218-0.0545-0.107-0.0545-0.247-0.0545-0.527v-0.4z" fill="#E6976A"/><mask id="path-3-inside-1_358_15703" fill="white"><path d="m13 0h-12c-0.552 0-1 0.448-1 1v0.0858c0 0.265 0.105 0.52 0.293 0.707l13.9 13.9c0.188 0.188 0.442 0.293 0.707 0.293h0.0858c0.552 0 1-0.448 1-1v-12c0-1.66-1.34-3-3-3z"/></mask><path d="m14.2 15.7 0.707-0.707-0.707 0.707zm-13.9-13.9 0.707-0.707-0.707 0.707zm0.707-0.793h12v-2h-12v2zm14 2v12h2v-12h-2zm0 12h-0.0858v2h0.0858v-2zm-0.0858 0-13.9-13.9-1.41 1.41 13.9 13.9 1.41-1.41zm-13.9-13.9v-0.0858h-2v0.0858h2zm-1e-6 0h1e-6 -2c0 0.53 0.211 1.04 0.586 1.41l1.41-1.41zm13.9 13.9-1.41 1.41c0.375 0.375 0.884 0.586 1.41 0.586v-2zm0.0858 0v2c1.1 0 2-0.895 2-2h-2zm-2-14c1.1 0 2 0.895 2 2h2c0-2.21-1.79-4-4-4v2zm-12-2c-1.1 0-2 0.895-2 2h2v-2z" fill="#5C2620" mask="url(#path-3-inside-1_358_15703)"/></svg>
