<svg viewBox="0 0 16 16" xmlns="http://www.w3.org/2000/svg"><path d="m0.00873 6-0.00462 4.66c-0.00187 1.89-0.00281 3.16 0.583 3.75 0.586 0.586 1.53 0.586 3.42 0.586h8c1.89 0 2.83 0 3.41-0.586 0.586-0.586 0.586-1.86 0.586-3.75v-3.33c0-0.509 0-0.95-0.0115-1.33h-16z" fill="#FFD683"/><path d="m0.00854 6h16c-0.0312-1.04-0.147-2-0.574-2.43-0.586-0.586-1.53-0.586-3.41-0.586h-2.23c-0.545 0-0.818 0-1.06-0.102s-0.438-0.294-0.823-0.68l-0.425-0.425c-0.385-0.385-0.578-0.578-0.823-0.68-0.245-0.102-0.518-0.102-1.06-0.102h-1.57c-1.88 0-2.83 0-3.41 0.585-0.586 0.585-0.587 1.87-0.588 3.76l-6.52e-4 0.658z" fill="#FFD683"/><path d="m12.5 6.08v2e-5c-0.0565 0.112-0.125 0.219-0.205 0.319-0.152 0.19-0.342 0.352-0.55 0.489-0.188 0.123-0.394 0.221-0.604 0.309l-0.356 0.15c0.0305 0.0629 0.0489 0.131 0.0539 0.199 0.0054 0.0735-0.0043 0.147-0.0216 0.219-0.0155 0.0648-0.0372 0.128-0.0647 0.19 0.165 0.00163 0.331-0.0017 0.496-0.00998 0.27-0.0135 0.539-0.0402 0.809-0.0399 0.162 2e-4 0.324 0.0102 0.485 0.0299 0.0892-0.155 0.158-0.319 0.205-0.489 0.0497-0.181 0.0744-0.367 0.0647-0.554-5e-3 -0.0957-0.019-0.191-0.0431-0.284-0.0495-0.191-0.142-0.372-0.27-0.529zm-3.03 7.87c0.173-0.0133 0.346-0.0274 0.518-0.0424 0.173 0.015 0.346 0.0291 0.518 0.0424 0.139 0.0106 0.278 0.0206 0.415 0.0449 0.0843 0.015 0.168 0.0353 0.249 0.0609 0.0023-0.0976 0.0043-0.195 6e-3 -0.293 0.0049-0.293 0.0068-0.586 0.0057-0.879 0.0422-0.0497 0.108-0.0818 0.176-0.0861s0.138 0.0193 0.187 0.0632c0.0063 0.0057 0.0124 0.0117 0.0184 0.0178 0.13 0.132 0.236 0.282 0.331 0.436 0.116 0.188 0.22 0.382 0.309 0.582 0.126-0.188 0.243-0.381 0.351-0.578 0.136-0.25 0.257-0.506 0.392-0.756 0.286-0.528 0.637-1.02 0.992-1.51l0.237-0.328c0.0068-0.162-8e-4 -0.325-0.0228-0.487-0.0212-0.155-0.0557-0.309-0.107-0.458-0.0495-0.145-0.115-0.285-0.198-0.416-0.0558-0.0872-0.12-0.17-0.191-0.247-0.104 0.0991-0.204 0.203-0.297 0.31-0.0722 0.0828-0.141 0.168-0.223 0.243-0.0815 0.075-0.176 0.136-0.273 0.194l-0.572 0.341c9e-4 0.0848-3e-3 0.17-0.0116 0.254-0.02 0.198-0.0668 0.396-0.163 0.575-0.105 0.195-0.269 0.355-0.439 0.506l-0.114 0.101c-0.0262 0.0233-0.0516 0.0473-0.0799 0.0684s-0.0612 0.0388-0.0973 0.042c-0.0181 0.0016-0.0366-6e-4 -0.0534-0.0069-0.0168-0.0064-0.0317-0.017-0.0428-0.0303-0.011-0.0133-0.0182-0.0292-0.022-0.0456s-0.0043-0.0333-0.0047-0.0501l-0.0255-1.28c-0.135-0.0128-0.27-0.0269-0.404-0.0423-0.169-0.0193-0.34-0.0413-0.496-0.106-0.138-0.0575-0.26-0.148-0.351-0.261-0.0903 0.113-0.212 0.203-0.351 0.261-0.155 0.0645-0.327 0.0865-0.496 0.106-0.135 0.0154-0.269 0.0295-0.404 0.0423l-0.0255 1.28c-3.6e-4 0.0168-8.6e-4 0.0337-0.00467 0.0501s-0.011 0.0323-0.022 0.0456c-0.0111 0.0133-0.026 0.0239-0.0428 0.0303-0.0168 0.0063-0.0353 0.0085-0.0534 0.0069-0.0361-0.0032-0.069-0.0209-0.0973-0.042s-0.0538-0.0451-0.08-0.0684l-0.114-0.101c-0.17-0.15-0.334-0.311-0.439-0.506-0.096-0.178-0.143-0.376-0.163-0.575-0.00854-0.0845-0.0124-0.169-0.0116-0.254l-0.572-0.341c-0.0966-0.0577-0.191-0.119-0.273-0.194-0.0815-0.075-0.151-0.16-0.223-0.243-0.0938-0.108-0.193-0.211-0.297-0.31-0.0711 0.077-0.135 0.16-0.191 0.247-0.0836 0.131-0.149 0.271-0.198 0.416-0.051 0.149-0.0856 0.303-0.107 0.458-0.022 0.161-0.0296 0.324-0.0228 0.487l0.237 0.328c0.354 0.491 0.706 0.987 0.992 1.51 0.135 0.25 0.256 0.506 0.392 0.756 0.108 0.197 0.225 0.39 0.351 0.578 0.0891-0.2 0.192-0.394 0.309-0.582 0.096-0.154 0.202-0.305 0.331-0.436 0.00598-0.0061 0.012-0.0121 0.0184-0.0178 0.0491-0.0439 0.119-0.0675 0.187-0.0632s0.134 0.0364 0.176 0.0861c-0.00109 0.293 8.4e-4 0.586 0.00578 0.879 0.00165 0.0975 0.00362 0.195 0.00593 0.293 0.0813-0.0256 0.164-0.0459 0.249-0.0609 0.137-0.0243 0.276-0.0343 0.415-0.0449zm-1.99-7.87c-0.128 0.157-0.22 0.338-0.27 0.529-0.0242 0.0932-0.0382 0.189-0.0431 0.284-0.00965 0.186 0.015 0.373 0.0647 0.554 0.0468 0.17 0.116 0.334 0.205 0.489 0.161-0.0197 0.323-0.0297 0.485-0.0299 0.27-3.3e-4 0.539 0.0264 0.809 0.0399 0.165 0.00828 0.331 0.0116 0.496 0.00997-0.0275-0.0613-0.0492-0.125-0.0647-0.19-0.0173-0.072-0.027-0.146-0.0216-0.219 0.00506-0.0687 0.0234-0.137 0.0539-0.199l-0.356-0.15c-0.21-0.0882-0.416-0.186-0.604-0.309-0.208-0.137-0.398-0.299-0.55-0.489-0.0796-0.0997-0.148-0.207-0.205-0.319v-3e-5zm2.81-2.81c0.158 0.155 0.307 0.318 0.442 0.49 0.0613 0.0781 0.12 0.158 0.175 0.24 0.0198-0.0798 0.0479-0.158 0.0839-0.233 0.0485-0.101 0.111-0.196 0.168-0.293 0.0627-0.107 0.119-0.218 0.168-0.331 0.151 0.106 0.295 0.221 0.431 0.342 0.259 0.23 0.491 0.487 0.69 0.763 0.144 0.201 0.271 0.412 0.381 0.631 0.141 0.282 0.254 0.576 0.336 0.877 0.13-0.0363 0.255-0.0889 0.37-0.156 0.109-0.0635 0.209-0.14 0.288-0.235 0.0785-0.0941 0.112-0.21 0.15-0.324 0.0574-0.175 0.104-0.283 0.107-0.464 0.0013-0.0881 0.0016-0.175-0.0096-0.262-0.0109-0.0849-0.0109-0.102-0.0225-0.176-8e-3 -0.0514-0.0323-0.17-0.0027-0.204 0.0293-0.0336 0.154 0.00349 0.24 0.0599 0.0859 0.0564 0.14 0.0791 0.284 0.23 0.144 0.151 0.375 0.427 0.511 0.67 0.139 0.247 0.198 0.531 0.17 0.809-0.0416 0.412-0.272 0.792-0.568 1.1-0.111 0.116-0.232 0.225-0.362 0.323 0.0228 0.0661 0.0407 0.134 0.0533 0.202 0.0124 0.0666 0.0174 0.134 0.0189 0.202l0.0036 0.165c0.114 0.00732 0.228 0.0205 0.34 0.0395 0.152 0.0257 0.304 0.0625 0.442 0.127 0.187 0.0874 0.346 0.224 0.465 0.383 0.238 0.317 0.322 0.712 0.343 1.1 0.0287 0.521-0.0489 1.05-0.265 1.53-0.19 0.423-0.484 0.803-0.841 1.12-0.171 0.152-0.358 0.29-0.555 0.412-0.061 0.154-0.133 0.304-0.215 0.449-0.144 0.256-0.32 0.495-0.496 0.734-0.132 0.179-0.264 0.358-0.397 0.536 0.0566 0.105 0.0978 0.217 0.122 0.332 0.0606 0.287 0.0092 0.599-0.172 0.839-0.179 0.238-0.467 0.388-0.759 0.494-0.387 0.141-0.804 0.22-1.22 0.204-0.246-0.0089-0.49-0.0506-0.725-0.12-0.163-0.0482-0.321-0.11-0.473-0.183-0.151 0.0738-0.31 0.135-0.473 0.183-0.234 0.0692-0.479 0.111-0.725 0.12-0.416 0.0152-0.833-0.0637-1.22-0.204-0.292-0.106-0.579-0.256-0.759-0.494-0.181-0.24-0.232-0.552-0.172-0.839 0.0242-0.115 0.0654-0.227 0.122-0.332-0.133-0.178-0.265-0.357-0.397-0.536-0.176-0.238-0.351-0.478-0.496-0.734-0.082-0.145-0.154-0.295-0.215-0.449-0.198-0.122-0.384-0.26-0.555-0.412-0.357-0.317-0.651-0.697-0.841-1.12-0.216-0.482-0.294-1.01-0.265-1.53 0.0212-0.385 0.105-0.781 0.343-1.1 0.12-0.159 0.278-0.296 0.465-0.383 0.138-0.0645 0.29-0.101 0.442-0.127 0.112-0.019 0.226-0.0322 0.34-0.0395l0.00362-0.165c0.00149-0.0675 0.00655-0.135 0.0189-0.202 0.0127-0.0684 0.0305-0.136 0.0533-0.202-0.129-0.0989-0.25-0.207-0.362-0.323-0.296-0.31-0.526-0.69-0.568-1.1-0.028-0.277 0.0317-0.562 0.17-0.809 0.136-0.243 0.367-0.519 0.511-0.67s0.198-0.174 0.284-0.23c0.0858-0.0564 0.211-0.0936 0.24-0.0599 0.0296 0.0339 0.00535 0.153-0.00269 0.204-0.0116 0.0745-0.0116 0.0911-0.0226 0.176-0.0112 0.0871-0.0109 0.174-0.00951 0.262 0.00287 0.181 0.0498 0.289 0.107 0.464 0.0373 0.114 0.071 0.23 0.149 0.324 0.0784 0.0941 0.179 0.171 0.287 0.235 0.115 0.0671 0.24 0.12 0.37 0.156 0.0818-0.301 0.194-0.595 0.335-0.877 0.11-0.219 0.237-0.43 0.381-0.631 0.199-0.277 0.431-0.533 0.69-0.763 0.137-0.122 0.281-0.236 0.431-0.342 0.0489 0.113 0.105 0.224 0.168 0.331 0.0568 0.0972 0.119 0.192 0.168 0.293 0.036 0.0748 0.0641 0.153 0.0839 0.233 0.0556-0.0817 0.114-0.162 0.175-0.24 0.135-0.172 0.284-0.335 0.442-0.49 0.0958-0.0936 0.195-0.184 0.297-0.272 0.103 0.0873 0.202 0.178 0.298 0.272z" fill="#6541CE"/></svg>
