<svg viewBox="0 0 16 16" xmlns="http://www.w3.org/2000/svg"><path d="m6 1.5c0-0.166-0.0823-0.321-0.22-0.414-0.137-0.093-0.312-0.112-0.466-0.0502l-5 2c-0.19 0.0759-0.314 0.26-0.314 0.464v10c0 0.166 0.0823 0.321 0.22 0.414 0.137 0.0931 0.312 0.112 0.466 0.0502l5-2c0.19-0.0759 0.314-0.26 0.314-0.464v-10z" fill="#AAD945"/><path d="m16 1.5c0-0.166-0.0823-0.321-0.22-0.414-0.137-0.093-0.312-0.112-0.466-0.0502l-5 2c-0.19 0.0759-0.314 0.26-0.314 0.464v10c0 0.166 0.0823 0.321 0.22 0.414 0.137 0.0931 0.312 0.112 0.466 0.0502l5-2c0.19-0.0759 0.314-0.26 0.314-0.464v-10z" fill="#AAD945"/><path d="m10.3 14-4.81-1.93v-11c0.0627-5e-6 0.126 0.0118 0.186 0.0358l4.81 1.93v11c-0.0627 0-0.126-0.0118-0.186-0.0358z" fill="#6EAC3E"/></svg>
